<svg xmlns="http://www.w3.org/2000/svg" version="1.1" xmlns:xlink="http://www.w3.org/1999/xlink" xmlns:svgjs="http://svgjs.dev/svgjs" width="1500" height="1500" viewBox="0 0 1500 1500"><rect width="1500" height="1500" fill="#ffffff"></rect><g transform="matrix(0.6666666666666666,0,0,0.6666666666666666,250,250)"><svg viewBox="0 0 280 280" data-background-color="#ffffff" preserveAspectRatio="xMidYMid meet" height="1500" width="1500" xmlns="http://www.w3.org/2000/svg" xmlns:xlink="http://www.w3.org/1999/xlink"><g id="tight-bounds" transform="matrix(1,0,0,1,0,0)"><svg viewBox="0 0 280 280" height="280" width="280"><g><svg viewBox="0 0 280 280" height="280" width="280"><g><svg viewBox="0 0 280 280" height="280" width="280"><g id="textblocktransform"><svg viewBox="0 0 280 280" height="280" width="280" id="textblock"><g><svg viewBox="0 0 280 280" height="280" width="280"><g transform="matrix(1,0,0,1,108.6862167781851,90.50252531694167)"><svg viewBox="0 0 62.627566443629796 98.99494936611666" height="98.99494936611666" width="62.627566443629796"><g id="icon-0"><svg xmlns="http://www.w3.org/2000/svg" xmlns:xlink="http://www.w3.org/1999/xlink" version="1.1" x="0" y="0" viewBox="22.162 6.498999984194633 55.67208907114979 88.00047569571484" enable-background="new 0 0 100 100" xml:space="preserve" height="98.99494936611666" width="62.627566443629796" class="icon-jxe-0" data-fill-palette-color="accent" id="jxe-0"><g fill="#222222" data-fill-palette-color="accent"><g fill="#222222" data-fill-palette-color="accent"><path fill-rule="evenodd" clip-rule="evenodd" d="M61.449 22.663C65.912 22.663 69.53 19.045 69.53 14.581S65.912 6.5 61.449 6.5A8.081 8.081 0 1 0 61.449 22.663M61.449 8.745A5.836 5.836 0 1 1 61.449 20.418 5.837 5.837 0 1 1 61.449 8.745M77.648 37.335C76.448 29.79 69.652 24.01 61.449 24.01 56.989 24.01 52.955 25.727 50 28.499 47.045 25.727 43.01 24.01 38.55 24.01 30.332 24.01 23.529 29.81 22.345 37.375 22.233 37.584 22.162 37.903 22.162 38.377V54.99A4.938 4.938 0 0 0 29.795 59.125V89.561A4.938 4.938 0 0 0 38.55 92.694 4.938 4.938 0 0 0 47.305 89.561V59.125C47.522 59.267 47.753 59.388 47.992 59.495 48.078 59.533 48.168 59.562 48.256 59.597 48.447 59.669 48.643 59.731 48.844 59.78 48.933 59.801 49.021 59.823 49.112 59.84 49.401 59.894 49.695 59.93 49.999 59.93A4.8 4.8 0 0 0 51.152 59.78C51.357 59.73 51.557 59.669 51.753 59.593 51.836 59.562 51.92 59.534 52 59.498A5 5 0 0 0 52.694 59.126V89.562A4.938 4.938 0 0 0 61.448 92.695 4.938 4.938 0 0 0 70.202 89.562V59.125A4.9 4.9 0 0 0 72.896 59.929 4.94 4.94 0 0 0 77.834 54.984V38.351C77.837 37.868 77.764 37.544 77.648 37.335M45.244 37.375C45.132 37.584 45.061 37.903 45.061 38.377V89.561A2.694 2.694 0 0 1 39.673 89.561V57.459A1.122 1.122 0 1 0 37.428 57.459V89.562A2.694 2.694 0 0 1 32.04 89.562V39.5A1.123 1.123 0 0 0 29.794 39.5V54.99A2.694 2.694 0 0 1 24.406 54.99V39.725C24.406 32.286 30.791 26.255 38.549 26.255 42.399 26.255 45.908 27.743 48.47 30.149 46.812 32.214 45.666 34.678 45.244 37.375M52.694 54.983A2.695 2.695 0 1 1 47.306 54.983V39.725C47.306 36.785 48.315 34.073 50 31.858 51.686 34.073 52.694 36.785 52.694 39.725zM75.592 54.983A2.695 2.695 0 0 1 72.899 57.68 2.695 2.695 0 0 1 70.205 54.983V43.092A1.123 1.123 0 0 0 67.96 43.092V89.562A2.693 2.693 0 0 1 62.573 89.562V57.459A1.122 1.122 0 1 0 60.328 57.459V89.562A2.693 2.693 0 0 1 54.941 89.562V38.352C54.941 37.869 54.869 37.545 54.753 37.336 54.326 34.655 53.183 32.204 51.53 30.149 54.092 27.743 57.601 26.255 61.451 26.255 69.209 26.255 75.594 32.286 75.594 39.725V54.983zM38.551 22.663A8.082 8.082 0 1 0 38.551 6.499 8.082 8.082 0 0 0 38.55 22.663M38.551 8.745A5.836 5.836 0 1 1 38.552 20.418 5.836 5.836 0 0 1 38.551 8.745" fill="#000000" data-fill-palette-color="accent"></path></g></g></svg></g></svg></g><g id="text-0"><path d="M29.98 89.533l6.021 2.17-7.587 21.056-1.641-0.592 0-3.825-20.54-7.401-2.439 2.946-1.641-0.591 7.587-21.056 6.021 2.17-0.696 1.932-3.641 0.076-3.873 10.748 8.854 3.191 3.082-8.554-1.904-1.481 0.619-1.716 7.334 2.643-0.618 1.716-2.748-0.195-3.083 8.553 9.079 3.272 3.873-10.749-2.755-2.381z" fill="#000000" data-fill-palette-color="primary"></path><path d="M46.301 76.37v0l-6.996 9.974-1.429-1.002 1.006-3.691-17.874-12.538-3.127 2.202-1.429-1.002 7.019-10.006c2.45-3.493 5.477-5.604 9.081-6.331 3.594-0.726 7.119 0.123 10.574 2.546 3.455 2.424 5.46 5.462 6.016 9.115 0.557 3.662-0.39 7.24-2.841 10.733zM23.206 65.771l18.07 12.676 2.903-4.138c1.637-2.334 2.187-4.807 1.647-7.417-0.53-2.612-2.209-4.911-5.039-6.896-2.829-1.985-5.577-2.784-8.243-2.397-2.668 0.377-4.813 1.722-6.435 4.034v0z" fill="#000000" data-fill-palette-color="primary"></path><path d="M67.814 40.114v0l-8.868-11.137-3.623 1.228-1.087-1.365 8.759-6.974 1.087 1.365-2.009 3.256 8.576 10.771c2.215 2.782 3.264 5.54 3.148 8.274-0.112 2.74-1.549 5.209-4.31 7.408-2.766 2.202-5.485 3.05-8.156 2.544-2.673-0.497-5.125-2.147-7.357-4.95v0l-8.575-10.771-3.623 1.228-1.087-1.365 8.751-6.967 1.087 1.365-2.001 3.249 8.868 11.138c1.544 1.939 3.208 3.091 4.993 3.454 1.784 0.363 3.498-0.109 5.141-1.418 1.638-1.304 2.486-2.863 2.546-4.677 0.054-1.81-0.699-3.695-2.26-5.656z" fill="#000000" data-fill-palette-color="primary"></path><path d="M102.722 28.082l2.294 1.669c-1.688 3.025-4.268 5.303-7.74 6.834v0c-3.26 1.437-6.544 1.632-9.853 0.585v0c-1.609-0.503-3.128-1.428-4.557-2.774-1.426-1.34-2.602-3.059-3.527-5.156-0.925-2.098-1.409-4.191-1.45-6.279-0.039-2.082 0.31-3.95 1.048-5.605v0c1.525-3.411 3.987-5.866 7.387-7.365v0c2.554-1.126 5.015-1.59 7.383-1.392v0l2.598 5.893-2.974 1.311-2.304-3.473c-0.714-0.317-1.831-0.141-3.351 0.53v0c-2.87 1.266-4.685 3.261-5.446 5.985-0.754 2.722-0.463 5.597 0.873 8.626 1.333 3.022 3.244 5.06 5.734 6.112 2.494 1.043 5.042 0.991 7.645-0.157v0c1.228-0.542 2.369-1.259 3.421-2.151 1.043-0.896 1.775-1.65 2.194-2.264v0z" fill="#000000" data-fill-palette-color="primary"></path><path d="M133.124 24.269c-2.234 3.007-5.173 4.795-8.817 5.365-3.651 0.571-6.986-0.236-10.006-2.42-3.026-2.184-4.867-5.377-5.524-9.58-0.658-4.209 0.122-7.839 2.342-10.891 2.213-3.057 5.131-4.869 8.756-5.436 3.618-0.566 6.961 0.267 10.027 2.498 3.072 2.224 4.938 5.44 5.597 9.649 0.657 4.202-0.134 7.808-2.375 10.815zM113.032 16.969c0.483 3.086 1.703 5.556 3.661 7.409 1.958 1.853 4.339 2.56 7.143 2.121 2.797-0.438 4.839-1.837 6.125-4.197 1.286-2.361 1.687-5.084 1.204-8.17-0.483-3.086-1.7-5.577-3.651-7.471-1.951-1.895-4.339-2.621-7.162-2.179-2.83 0.443-4.878 1.863-6.145 4.261-1.266 2.398-1.658 5.14-1.175 8.226z" fill="#000000" data-fill-palette-color="primary"></path><path d="M170.614 6.197l-3.287 24.655-3.607-0.481-9.828-23.527-2.508 18.815 2.527 1.645-0.231 1.729-10.228-1.363 0.231-1.73 3.738-0.809 2.886-21.641-3.397-1.761 0.231-1.729 8.034 1.071 9.151 22.039 2.325-17.442-2.536-1.645 0.23-1.729 10.228 1.363-0.23 1.729z" fill="#000000" data-fill-palette-color="primary"></path><path d="M207.951 20.385l-10.103 22.729-3.325-1.478-2.798-25.344-7.71 17.346 1.961 2.29-0.709 1.594-9.429-4.191 0.709-1.595 3.815 0.278 8.868-19.951-2.762-2.646 0.709-1.594 7.406 3.292 2.568 23.725 7.147-16.079-1.97-2.294 0.709-1.594 9.429 4.191-0.709 1.594z" fill="#000000" data-fill-palette-color="primary"></path><path d="M226.916 57.137l-4.036 4.967-17.37-14.114 1.1-1.354 3.611 1.263 13.769-16.944-1.976-3.275 1.1-1.354 17.37 14.115-4.037 4.967-1.593-1.295 1.13-3.462-8.867-7.205-5.935 7.303 7.056 5.734 2.027-1.308 1.416 1.151-4.917 6.05-1.416-1.15 1.092-2.53-7.056-5.734-6.086 7.49 8.867 7.205 3.157-1.815z" fill="#000000" data-fill-palette-color="primary"></path><path d="M244.126 81.721l-1.127 2.603c-3.32-0.987-6.107-3.008-8.359-6.062v0c-2.114-2.867-3.021-6.03-2.722-9.487v0c0.14-1.68 0.711-3.365 1.712-5.053 0.996-1.684 2.417-3.206 4.263-4.567 1.846-1.361 3.783-2.289 5.811-2.786 2.023-0.493 3.923-0.559 5.698-0.201v0c3.661 0.744 6.595 2.611 8.799 5.601v0c1.657 2.247 2.647 4.547 2.971 6.902v0l-5.184 3.822-1.928-2.616 2.885-3.007c0.154-0.766-0.262-1.817-1.248-3.155v0c-1.862-2.525-4.205-3.861-7.03-4.008-2.821-0.141-5.563 0.77-8.227 2.735-2.659 1.96-4.23 4.27-4.713 6.93-0.474 2.661 0.133 5.137 1.822 7.426v0c0.797 1.081 1.745 2.037 2.846 2.869 1.102 0.823 1.998 1.372 2.688 1.647v0z" fill="#000000" data-fill-palette-color="primary"></path><path d="M250.802 105.823l-1.62 0.646-4.145-10.4 1.621-0.646 2.536 2.864 20.319-8.097-2.576-6.465-3.642 0.046-0.907-2.279 5.945-2.369 9.514 23.875-5.945 2.37-0.908-2.279 2.674-2.471-2.675-6.715-20.319 8.097z" fill="#000000" data-fill-palette-color="primary"></path><path d="M23.534 201.097l-6.112 2.212-7.723-21.347 1.66-0.6 2.488 2.98 20.812-7.529 0.005-3.883 1.66-0.6 7.722 21.346-6.112 2.212-0.709-1.96 2.793-2.42-3.941-10.893-8.972 3.245 3.137 8.672 2.442-0.078 0.628 1.735-7.425 2.686-0.628-1.735 2.265-1.624-3.138-8.672-9.196 3.327 3.941 10.894 3.694 0.073z" fill="#000000" data-fill-palette-color="primary"></path><path d="M30.094 223.092v0l-7.103-10.106 1.444-1.014 3.183 2.223 18.107-12.727-1.013-3.747 1.443-1.015 7.126 10.138c2.492 3.545 3.464 7.159 2.917 10.843-0.547 3.683-2.572 6.755-6.074 9.216-3.502 2.461-7.093 3.328-10.773 2.599-3.68-0.728-6.766-2.865-9.257-6.41zM48.156 204.719l-18.303 12.864 2.947 4.192c1.662 2.365 3.829 3.743 6.499 4.133 2.68 0.391 5.452-0.42 8.318-2.434 2.866-2.014 4.575-4.361 5.128-7.041 0.552-2.671 0.004-5.178-1.642-7.521v0z" fill="#000000" data-fill-palette-color="primary"></path><path d="M68.946 246.747v0l8.982-11.3-2.031-3.309 1.098-1.381 8.881 7.06-1.098 1.381-3.681-1.232-8.685 10.925c-2.246 2.825-4.733 4.49-7.461 4.996-2.727 0.515-5.493-0.342-8.298-2.571-2.804-2.229-4.265-4.723-4.381-7.481-0.115-2.749 0.958-5.547 3.22-8.393v0l8.686-10.926-2.032-3.308 1.098-1.382 8.881 7.06-1.098 1.381-3.681-1.232-8.983 11.3c-1.563 1.967-2.32 3.874-2.269 5.723 0.05 1.848 0.908 3.434 2.573 4.758 1.665 1.323 3.399 1.806 5.203 1.449 1.804-0.357 3.496-1.53 5.076-3.518z" fill="#000000" data-fill-palette-color="primary"></path><path d="M99.083 268.664l0.323 2.854c-3.425 0.801-6.898 0.426-10.42-1.126v0c-3.303-1.455-5.696-3.78-7.179-6.975v0c-0.721-1.545-1.069-3.311-1.044-5.296 0.028-1.992 0.511-4.053 1.449-6.182 0.938-2.129 2.173-3.919 3.706-5.372 1.536-1.459 3.175-2.476 4.918-3.052v0c3.59-1.193 7.11-1.03 10.558 0.49v0c2.597 1.144 4.631 2.668 6.102 4.572v0l-2.633 5.976-3.01-1.326 1.014-4.107c-0.251-0.75-1.149-1.465-2.694-2.145v0c-2.907-1.281-5.64-1.275-8.199 0.015-2.555 1.3-4.51 3.486-5.863 6.558-1.353 3.072-1.571 5.899-0.653 8.482 0.926 2.58 2.709 4.451 5.349 5.613v0c1.247 0.549 2.565 0.912 3.954 1.088 1.383 0.174 2.449 0.203 3.196 0.09v0z" fill="#000000" data-fill-palette-color="primary"></path><path d="M131.299 276.296c-3.09 2.207-6.484 3.021-10.181 2.442-3.697-0.579-6.666-2.389-8.907-5.431-2.248-3.043-3.038-6.698-2.37-10.967 0.668-4.268 2.548-7.532 5.64-9.793 3.085-2.262 6.463-3.105 10.134-2.53 3.671 0.575 6.642 2.412 8.915 5.513 2.279 3.102 3.085 6.786 2.417 11.054-0.668 4.268-2.551 7.505-5.648 9.712zM114.165 263.017c-0.49 3.132-0.079 5.897 1.234 8.297 1.321 2.393 3.399 3.812 6.236 4.255 2.837 0.444 5.243-0.272 7.218-2.149 1.97-1.885 3.2-4.393 3.691-7.525 0.49-3.132 0.088-5.913-1.206-8.342-1.3-2.437-3.382-3.88-6.245-4.328-2.869-0.449-5.286 0.289-7.249 2.215-1.962 1.92-3.188 4.445-3.679 7.577z" fill="#000000" data-fill-palette-color="primary"></path><path d="M166.773 251.775l3.328 25.002-3.656 0.487-15.865-20.427 2.541 19.083 2.912 0.949 0.233 1.75-10.376 1.381-0.233-1.749 3.442-1.796-2.921-21.939-3.792-0.832-0.233-1.749 8.153-1.086 14.809 19.149-2.355-17.689-2.922-0.949-0.233-1.749 10.377-1.381 0.232 1.749z" fill="#000000" data-fill-palette-color="primary"></path><path d="M195.812 239.89l10.238 23.051-3.371 1.497-20.977-15.129 7.814 17.594 3.062 0.091 0.717 1.612-9.567 4.25-0.716-1.613 2.796-2.693-8.984-20.227-3.873 0.27-0.716-1.613 7.517-3.339 19.604 14.201-7.243-16.309-3.072-0.087-0.716-1.613 9.567-4.249 0.716 1.613z" fill="#000000" data-fill-palette-color="primary"></path><path d="M231.413 236.167l4.096 5.047-17.627 14.304-1.112-1.37 1.998-3.329-13.946-17.186-3.669 1.27-1.111-1.37 17.626-14.304 4.096 5.047-1.618 1.313-3.203-1.843-8.995 7.3 6.011 7.408 7.161-5.811-0.875-2.281 1.432-1.162 4.975 6.131-1.432 1.162-2.278-1.605-7.161 5.811 6.163 7.594 8.995-7.299-1.144-3.514z" fill="#000000" data-fill-palette-color="primary"></path><path d="M251.828 211.861l2.855 0.313c0.028 3.517-1.101 6.823-3.388 9.918v0c-2.145 2.902-4.939 4.725-8.382 5.469v0c-1.666 0.364-3.465 0.315-5.397-0.145-1.937-0.465-3.841-1.389-5.712-2.772-1.871-1.383-3.346-2.982-4.426-4.796-1.085-1.819-1.718-3.642-1.896-5.469v0c-0.374-3.765 0.558-7.162 2.798-10.192v0c1.687-2.282 3.621-3.931 5.802-4.948v0l5.251 3.882-1.956 2.646-3.784-1.892c-0.786 0.08-1.681 0.799-2.684 2.156v0c-1.888 2.555-2.484 5.222-1.787 8.002 0.707 2.779 2.409 5.165 5.109 7.161 2.699 1.995 5.409 2.829 8.13 2.501 2.72-0.337 4.937-1.665 6.652-3.984v0c0.81-1.096 1.453-2.302 1.931-3.619 0.473-1.311 0.737-2.344 0.79-3.098v0z" fill="#000000" data-fill-palette-color="primary"></path><path d="M265.977 188.313l1.638 0.656-4.218 10.532-1.638-0.656 0.125-3.88-20.582-8.244-2.625 6.553 2.71 2.513-0.927 2.314-6.034-2.417 9.693-24.201 6.034 2.417-0.923 2.304-3.695-0.052-2.728 6.812 20.582 8.244z" fill="#000000" data-fill-palette-color="primary"></path><path d="M3.507 143.966c0-5.973 4.842-10.816 10.815-10.816 5.973 0 10.816 4.842 10.816 10.816 0 5.973-4.842 10.816-10.816 10.816-5.973 0-10.816-4.842-10.815-10.816z" fill="#000000" data-fill-palette-color="primary"></path><path d="M254.741 143.966c0-5.973 4.842-10.816 10.815-10.816 5.973 0 10.816 4.842 10.816 10.816 0 5.973-4.842 10.816-10.816 10.816-5.973 0-10.816-4.842-10.815-10.816z" fill="#000000" data-fill-palette-color="primary"></path></g><g id="text-1"></g></svg></g></svg></g></svg></g></svg></g><defs></defs></svg><rect width="280" height="280" fill="none" stroke="none" visibility="hidden"></rect></g></svg></g></svg>